<svg width="23" height="22" viewBox="0 0 23 22" fill="none" xmlns="http://www.w3.org/2000/svg">
<path d="M1 10.75L3.25653 8.58333M3.25653 8.58333L11.1544 1L19.0522 8.58333M3.25653 8.58333V19.4167C3.25653 19.704 3.3754 19.9795 3.58699 20.1827C3.79858 20.3859 4.08556 20.5 4.38479 20.5H7.76959M19.0522 8.58333L21.3088 10.75M19.0522 8.58333V19.4167C19.0522 19.704 18.9334 19.9795 18.7218 20.1827C18.5102 20.3859 18.2232 20.5 17.924 20.5H14.5392M7.76959 20.5C8.06882 20.5 8.3558 20.3859 8.56739 20.1827C8.77898 19.9795 8.89785 19.704 8.89785 19.4167V15.0833C8.89785 14.796 9.01672 14.5205 9.22831 14.3173C9.4399 14.1141 9.72688 14 10.0261 14H12.2826C12.5819 14 12.8689 14.1141 13.0804 14.3173C13.292 14.5205 13.4109 14.796 13.4109 15.0833V19.4167C13.4109 19.704 13.5298 19.9795 13.7414 20.1827C13.953 20.3859 14.2399 20.5 14.5392 20.5M7.76959 20.5H14.5392" stroke="#3F3F46" stroke-width="2" stroke-linecap="round" stroke-linejoin="round"/>
</svg>
