<svg width="16" height="19" viewBox="0 0 16 19" fill="none" xmlns="http://www.w3.org/2000/svg">
<path d="M14.8333 5.54159H12.4583C12.0384 5.54159 11.6357 5.37477 11.3387 5.07784C11.0418 4.78091 10.875 4.37818 10.875 3.95825V1.58325" stroke="black" stroke-width="2" stroke-linecap="round" stroke-linejoin="round"/>
<path d="M6.12508 14.2499C5.70516 14.2499 5.30243 14.0831 5.0055 13.7862C4.70856 13.4892 4.54175 13.0865 4.54175 12.6666V3.16659C4.54175 2.74666 4.70856 2.34393 5.0055 2.047C5.30243 1.75007 5.70516 1.58325 6.12508 1.58325H11.6667L14.8334 4.74992V12.6666C14.8334 13.0865 14.6666 13.4892 14.3697 13.7862C14.0727 14.0831 13.67 14.2499 13.2501 14.2499H6.12508Z" stroke="black" stroke-width="2" stroke-linecap="round" stroke-linejoin="round"/>
<path d="M1.375 6.0166V16.1499C1.375 16.4859 1.50845 16.8081 1.746 17.0456C1.98354 17.2831 2.30573 17.4166 2.64167 17.4166H10.4" stroke="black" stroke-width="2" stroke-linecap="round" stroke-linejoin="round"/>
</svg>
