<svg width="35" height="31" viewBox="0 0 35 31" fill="none" xmlns="http://www.w3.org/2000/svg">
<path d="M21.8752 21.9583H29.1668L27.1179 20.1435C26.8427 19.8998 26.6245 19.6104 26.4756 19.2919C26.3267 18.9734 26.2501 18.6321 26.2502 18.2874V14.2083C26.2504 12.6053 25.6895 11.0416 24.6449 9.73256C23.6002 8.42352 22.1231 7.43349 20.4168 6.89879V6.45833C20.4168 5.77319 20.1095 5.11611 19.5626 4.63164C19.0156 4.14717 18.2737 3.875 17.5002 3.875C16.7266 3.875 15.9847 4.14717 15.4378 4.63164C14.8908 5.11611 14.5835 5.77319 14.5835 6.45833V6.89879C11.1856 7.96312 8.75016 10.8345 8.75016 14.2083V18.2887C8.75016 18.9836 8.43808 19.6514 7.88245 20.1435L5.8335 21.9583H13.1252M21.8752 21.9583H13.1252M21.8752 21.9583V23.25C21.8752 24.2777 21.4142 25.2633 20.5938 25.99C19.7733 26.7167 18.6605 27.125 17.5002 27.125C16.3398 27.125 15.227 26.7167 14.4066 25.99C13.5861 25.2633 13.1252 24.2777 13.1252 23.25V21.9583" stroke="#3F3F46" stroke-width="2" stroke-linecap="round" stroke-linejoin="round"/>
</svg>
