<svg width="16" height="16" viewBox="0 0 16 16" fill="none" xmlns="http://www.w3.org/2000/svg">
  <path d="M8 10.5C9.38071 10.5 10.5 9.38071 10.5 8C10.5 6.61929 9.38071 5.5 8 5.5C6.61929 5.5 5.5 6.61929 5.5 8C5.5 9.38071 6.61929 10.5 8 10.5Z" stroke="currentColor" stroke-width="1.5" stroke-linecap="round" stroke-linejoin="round"/>
  <path d="M14.5 8C14.5 7.5 14.4 7 14.2 6.6L12.8 4.2C12.6 3.8 12.3 3.5 11.9 3.3L9.5 2.1C9.1 1.9 8.6 1.8 8 1.8C7.4 1.8 6.9 1.9 6.5 2.1L4.1 3.3C3.7 3.5 3.4 3.8 3.2 4.2L1.8 6.6C1.6 7 1.5 7.5 1.5 8C1.5 8.5 1.6 9 1.8 9.4L3.2 11.8C3.4 12.2 3.7 12.5 4.1 12.7L6.5 13.9C6.9 14.1 7.4 14.2 8 14.2C8.6 14.2 9.1 14.1 9.5 13.9L11.9 12.7C12.3 12.5 12.6 12.2 12.8 11.8L14.2 9.4C14.4 9 14.5 8.5 14.5 8Z" stroke="currentColor" stroke-width="1.5" stroke-linecap="round" stroke-linejoin="round"/>
</svg> 